# xmcd
#
# Track frame offsets:
#	150
#	11340
#	27710
#	40627
#	51022
#	66335
#	83821
#	99028
#	114224
#	131722
#	146169
#
# Disc length: 2187 seconds
#
# Revision: 0
# Processed by: cddbd v1.5.2PL0 Copyright (c) Steve Scherf et al.
# Submitted via: EasyCDDAExtractor 9.1.3.1
#
DISCID=8a08890b
DTITLE=Belmonte e Amarai - Porque Fui te Conhecer
DYEAR=1972
DGENRE=Country
TTITLE0=Porque fui te conhecer
TTITLE1=Regresso do Sertão
TTITLE2=Para Morrer Juntinhos (Para Morir Iguales)
TTITLE3=Último Adeus
TTITLE4=A Voz do Povo é a Voz de Deus
TTITLE5=Saudade de Você
TTITLE6=Eu Penso em Ti Amor
TTITLE7=Esquina do Adeus
TTITLE8=Cavalinho de Pau
TTITLE9=Quatro Estados
TTITLE10=Tua Ausência
EXTD=
EXTT0=
EXTT1=
EXTT2=
EXTT3=
EXTT4=
EXTT5=
EXTT6=
EXTT7=
EXTT8=
EXTT9=
EXTT10=
PLAYORDER=
